<svg xmlns="http://www.w3.org/2000/svg" width="512" height="512" viewBox="0 0 512 512" style="overflow: visible;" data-svgdocument="" id="_4lG8ep7Zwp5jLLIypUUJc" class="fl-svgdocument" x="0" y="0" overflow="hidden"><defs id="_H5ZyWTchWDJKEYOEUCmZI" transform="matrix(0.5774283297359943, 0, 0, 0.5774283297359943, -30.88359498977661, 152.89733791351318)" data-uid="o_f6d238cde_5"><radialGradient id="o_f6d238cde_3" cx="0.5" cy="0.5" r="0.5" gradientUnits="objectBoundingBox" data-uid="o_f6d238cde_6"><stop id="_qTJNSKFz4Hv6J9dnSoy5N" offset="0%" stop-color="rgb(60, 60, 240)" data-uid="o_f6d238cde_7"></stop><stop id="_YnCaF2IYkChKznvbjbauf" offset="100%" stop-color="rgb(56, 56, 181)" data-uid="o_f6d238cde_8"></stop><stop id="_AmOfrmWLyZYLx2Ot1yiDy" offset="100%" stop-color="rgb(56, 56, 181)" data-uid="o_f6d238cde_9"></stop></radialGradient></defs><path id="_OP5wupzaS2Fu9elvpiPVq" d="M89.4826279 17.6715031L78.2487488 4.999999c0 0-6.7923508 5.224329-13.8462448 5.224329  c-7.0546761 0.0007896-13.0618324-5.224329-13.0618324-5.224329s-6.0085564 5.224329-13.0616531 5.224329  c-7.0546761 0-13.8462448-5.224329-13.8462448-5.224329l-11.2344637 12.671504c0 0 5.7925043 3.1340504 5.7925043 10.4437561  c0 7.3092785-5.270031 9.0189533-5.270031 24.5623875C13.7207832 81.6772232 51.3406715 95 51.3406715 95  S88.960762 81.6772232 88.960762 52.6784363c0-15.5434341-5.270256-17.253109-5.270256-24.5622044  C83.6895142 20.8055534 89.4826279 17.6715031 89.4826279 17.6715031z M46.0518417 65.7970581l-0.0047607-0.0045395  l-0.0047417 0.0045395L31.1068249 50.8597794l6.0706654-6.070282l8.8707848 8.8687973l19.4559593-19.4553719l6.0694733 6.0712738  L46.0518417 65.7970581z" fill="url(#o_f6d238cde_3)" transform="matrix(5.646964916289313, 0, 0, 5.646964916289313, -33.91782387836632, -26.34824042910024)" data-uid="o_f6d238cde_10"></path></svg>